<svg xmlns="http://www.w3.org/2000/svg" xmlns:xlink="http://www.w3.org/1999/xlink" width="220" zoomAndPan="magnify" viewBox="0 0 165 36.000001" height="48" preserveAspectRatio="xMidYMid meet" version="1.0"><defs><g/><clipPath id="1e9e7842e0"><path d="M 2.230469 0 L 162.769531 0 L 162.769531 35.027344 L 2.230469 35.027344 Z M 2.230469 0 " clip-rule="nonzero"/></clipPath><clipPath id="d693a1781b"><path d="M 20 5.628906 L 25 5.628906 L 25 11 L 20 11 Z M 20 5.628906 " clip-rule="nonzero"/></clipPath><clipPath id="ab3e5357c1"><path d="M 24 5.628906 L 29 5.628906 L 29 11 L 24 11 Z M 24 5.628906 " clip-rule="nonzero"/></clipPath><clipPath id="c0a56a9637"><path d="M 27 22 L 32 22 L 32 29.710938 L 27 29.710938 Z M 27 22 " clip-rule="nonzero"/></clipPath><clipPath id="9c0c95a40f"><path d="M 24 24 L 29 24 L 29 29.710938 L 24 29.710938 Z M 24 24 " clip-rule="nonzero"/></clipPath><clipPath id="384ae8af30"><path d="M 20 24 L 25 24 L 25 29.710938 L 20 29.710938 Z M 20 24 " clip-rule="nonzero"/></clipPath><clipPath id="946ac9e4cc"><path d="M 17 22 L 21 22 L 21 29.710938 L 17 29.710938 Z M 17 22 " clip-rule="nonzero"/></clipPath><clipPath id="2c038e2420"><path d="M 12.273438 20 L 20 20 L 20 25 L 12.273438 25 Z M 12.273438 20 " clip-rule="nonzero"/></clipPath><clipPath id="95ee9d174b"><path d="M 12.273438 17 L 18 17 L 18 22 L 12.273438 22 Z M 12.273438 17 " clip-rule="nonzero"/></clipPath><clipPath id="85c1d1a97f"><path d="M 12.273438 13 L 18 13 L 18 18 L 12.273438 18 Z M 12.273438 13 " clip-rule="nonzero"/></clipPath><clipPath id="19d0c2daf8"><path d="M 12.273438 10 L 20 10 L 20 15 L 12.273438 15 Z M 12.273438 10 " clip-rule="nonzero"/></clipPath><clipPath id="9ef6ef3b68"><path d="M 100 6 L 107.867188 6 L 107.867188 22 L 100 22 Z M 100 6 " clip-rule="nonzero"/></clipPath><clipPath id="93e606d7f7"><path d="M 105 25 L 107.867188 25 L 107.867188 28 L 105 28 Z M 105 25 " clip-rule="nonzero"/></clipPath><clipPath id="4604450da6"><rect x="0" width="34" y="0" height="14"/></clipPath><clipPath id="2973e2274c"><path d="M 144.277344 19.203125 L 147.925781 19.203125 L 147.925781 22.851562 L 144.277344 22.851562 Z M 144.277344 19.203125 " clip-rule="nonzero"/></clipPath></defs><g clip-path="url(#1e9e7842e0)"><path fill="#ffffff" d="M 2.230469 0 L 162.769531 0 L 162.769531 35.027344 L 2.230469 35.027344 Z M 2.230469 0 " fill-opacity="1" fill-rule="nonzero"/><path fill="#ffffff" d="M 2.230469 0 L 162.769531 0 L 162.769531 35.027344 L 2.230469 35.027344 Z M 2.230469 0 " fill-opacity="1" fill-rule="nonzero"/></g><g clip-path="url(#d693a1781b)"><path fill="#789bea" d="M 21.902344 10.703125 L 24.1875 10.703125 L 22.320312 5.640625 L 20.03125 5.640625 Z M 21.902344 10.703125 " fill-opacity="1" fill-rule="nonzero"/></g><g clip-path="url(#ab3e5357c1)"><path fill="#789bea" d="M 26.476562 10.703125 L 24.1875 10.703125 L 26.058594 5.640625 L 28.347656 5.640625 Z M 26.476562 10.703125 " fill-opacity="1" fill-rule="nonzero"/></g><path fill="#789bea" d="M 27.453125 11.109375 L 29.070312 12.742188 L 31.292969 7.828125 L 29.675781 6.195312 Z M 27.453125 11.109375 " fill-opacity="1" fill-rule="nonzero"/><path fill="#789bea" d="M 30.6875 14.375 L 29.070312 12.742188 L 33.9375 10.496094 L 35.554688 12.128906 Z M 30.6875 14.375 " fill-opacity="1" fill-rule="nonzero"/><path fill="#789bea" d="M 31.089844 15.359375 L 31.089844 17.667969 L 36.105469 15.78125 L 36.105469 13.472656 Z M 31.089844 15.359375 " fill-opacity="1" fill-rule="nonzero"/><path fill="#789bea" d="M 31.089844 19.980469 L 31.089844 17.667969 L 36.105469 19.558594 L 36.105469 21.867188 Z M 31.089844 19.980469 " fill-opacity="1" fill-rule="nonzero"/><path fill="#789bea" d="M 30.6875 20.964844 L 29.070312 22.597656 L 33.9375 24.839844 L 35.554688 23.207031 Z M 30.6875 20.964844 " fill-opacity="1" fill-rule="nonzero"/><g clip-path="url(#c0a56a9637)"><path fill="#789bea" d="M 27.453125 24.230469 L 29.070312 22.597656 L 31.292969 27.511719 L 29.675781 29.144531 Z M 27.453125 24.230469 " fill-opacity="1" fill-rule="nonzero"/></g><g clip-path="url(#9c0c95a40f)"><path fill="#789bea" d="M 26.476562 24.636719 L 24.1875 24.636719 L 26.058594 29.699219 L 28.347656 29.699219 Z M 26.476562 24.636719 " fill-opacity="1" fill-rule="nonzero"/></g><g clip-path="url(#384ae8af30)"><path fill="#789bea" d="M 21.902344 24.636719 L 24.1875 24.636719 L 22.320312 29.699219 L 20.03125 29.699219 Z M 21.902344 24.636719 " fill-opacity="1" fill-rule="nonzero"/></g><g clip-path="url(#946ac9e4cc)"><path fill="#789bea" d="M 20.925781 24.230469 L 19.308594 22.597656 L 17.085938 27.511719 L 18.703125 29.144531 Z M 20.925781 24.230469 " fill-opacity="1" fill-rule="nonzero"/></g><g clip-path="url(#2c038e2420)"><path fill="#789bea" d="M 17.691406 20.964844 L 19.308594 22.597656 L 14.441406 24.839844 L 12.824219 23.207031 Z M 17.691406 20.964844 " fill-opacity="1" fill-rule="nonzero"/></g><g clip-path="url(#95ee9d174b)"><path fill="#789bea" d="M 17.285156 19.980469 L 17.285156 17.667969 L 12.273438 19.558594 L 12.273438 21.867188 Z M 17.285156 19.980469 " fill-opacity="1" fill-rule="nonzero"/></g><g clip-path="url(#85c1d1a97f)"><path fill="#789bea" d="M 17.285156 15.359375 L 17.285156 17.667969 L 12.273438 15.78125 L 12.273438 13.472656 Z M 17.285156 15.359375 " fill-opacity="1" fill-rule="nonzero"/></g><g clip-path="url(#19d0c2daf8)"><path fill="#789bea" d="M 17.691406 14.375 L 19.308594 12.742188 L 14.441406 10.496094 L 12.824219 12.128906 Z M 17.691406 14.375 " fill-opacity="1" fill-rule="nonzero"/></g><path fill="#789bea" d="M 20.925781 11.109375 L 19.308594 12.742188 L 17.085938 7.828125 L 18.703125 6.195312 Z M 20.925781 11.109375 " fill-opacity="1" fill-rule="nonzero"/><path fill="#232851" d="M 40.492188 6.449219 L 43.445312 6.449219 L 43.445312 21.171875 L 40.492188 21.171875 Z M 40.492188 6.449219 " fill-opacity="1" fill-rule="nonzero"/><path fill="#232851" d="M 63.929688 10.53125 C 64.808594 11.417969 65.246094 12.65625 65.246094 14.25 L 65.246094 21.171875 L 62.292969 21.171875 L 62.292969 14.652344 C 62.292969 13.730469 62.058594 13.023438 61.59375 12.53125 C 61.128906 12.042969 60.496094 11.796875 59.695312 11.796875 C 58.894531 11.796875 58.257812 12.042969 57.785156 12.53125 C 57.3125 13.023438 57.078125 13.730469 57.078125 14.652344 L 57.078125 21.171875 L 54.125 21.171875 L 54.125 14.652344 C 54.125 13.730469 53.890625 13.023438 53.425781 12.53125 C 52.960938 12.042969 52.328125 11.796875 51.527344 11.796875 C 50.726562 11.796875 50.066406 12.042969 49.597656 12.53125 C 49.125 13.023438 48.890625 13.730469 48.890625 14.652344 L 48.890625 21.171875 L 45.933594 21.171875 L 45.933594 9.367188 L 48.890625 9.367188 L 48.890625 10.796875 C 49.269531 10.300781 49.757812 9.910156 50.355469 9.625 C 50.953125 9.339844 51.613281 9.199219 52.328125 9.199219 C 53.242188 9.199219 54.058594 9.394531 54.777344 9.785156 C 55.496094 10.175781 56.050781 10.734375 56.445312 11.457031 C 56.824219 10.773438 57.375 10.230469 58.101562 9.816406 C 58.824219 9.40625 59.609375 9.199219 60.453125 9.199219 C 61.890625 9.199219 63.046875 9.644531 63.925781 10.53125 Z M 63.929688 10.53125 " fill-opacity="1" fill-rule="nonzero"/><path fill="#232851" d="M 73.117188 20.84375 C 72.386719 21.207031 71.597656 21.386719 70.753906 21.386719 C 70.023438 21.386719 69.363281 21.238281 68.773438 20.9375 C 68.179688 20.640625 67.714844 20.230469 67.378906 19.703125 C 67.039062 19.175781 66.871094 18.574219 66.871094 17.890625 C 66.871094 16.796875 67.277344 15.902344 68.085938 15.207031 C 68.894531 14.511719 70.109375 14.164062 71.726562 14.164062 L 74.703125 14.164062 C 74.675781 13.410156 74.460938 12.8125 74.058594 12.363281 C 73.660156 11.914062 73.105469 11.691406 72.402344 11.691406 C 71.78125 11.691406 71.269531 11.859375 70.863281 12.195312 C 70.453125 12.527344 70.191406 12.992188 70.082031 13.589844 L 67.125 13.589844 C 67.265625 12.738281 67.570312 11.972656 68.042969 11.300781 C 68.515625 10.625 69.132812 10.097656 69.902344 9.722656 C 70.667969 9.347656 71.527344 9.160156 72.488281 9.160156 C 73.445312 9.160156 74.363281 9.363281 75.15625 9.777344 C 75.949219 10.1875 76.574219 10.777344 77.023438 11.542969 C 77.476562 12.3125 77.699219 13.214844 77.699219 14.25 L 77.699219 21.175781 L 74.703125 21.175781 L 74.703125 19.492188 C 74.378906 20.03125 73.851562 20.480469 73.121094 20.84375 Z M 73.066406 18.660156 C 73.535156 18.445312 73.925781 18.125 74.238281 17.699219 C 74.546875 17.273438 74.703125 16.769531 74.703125 16.1875 L 74.703125 16.101562 L 71.894531 16.101562 C 71.21875 16.101562 70.714844 16.238281 70.386719 16.507812 C 70.054688 16.777344 69.890625 17.132812 69.890625 17.574219 C 69.890625 18.011719 70.039062 18.339844 70.34375 18.59375 C 70.644531 18.851562 71.070312 18.980469 71.621094 18.980469 C 72.113281 18.980469 72.59375 18.871094 73.066406 18.660156 Z M 73.066406 18.660156 " fill-opacity="1" fill-rule="nonzero"/><path fill="#232851" d="M 90.046875 10.53125 C 90.902344 11.417969 91.332031 12.65625 91.332031 14.25 L 91.332031 21.171875 L 88.378906 21.171875 L 88.378906 14.652344 C 88.378906 13.714844 88.144531 12.996094 87.679688 12.488281 C 87.214844 11.984375 86.582031 11.734375 85.78125 11.734375 C 84.980469 11.734375 84.320312 11.984375 83.851562 12.488281 C 83.378906 12.992188 83.144531 13.714844 83.144531 14.652344 L 83.144531 21.171875 L 80.1875 21.171875 L 80.1875 9.367188 L 83.144531 9.367188 L 83.144531 10.839844 C 83.539062 10.328125 84.039062 9.925781 84.652344 9.636719 C 85.265625 9.34375 85.9375 9.199219 86.667969 9.199219 C 88.0625 9.199219 89.1875 9.644531 90.046875 10.53125 Z M 90.046875 10.53125 " fill-opacity="1" fill-rule="nonzero"/><path fill="#232851" d="M 97.917969 21.171875 L 99.773438 21.171875 L 99.773438 18.660156 L 98.402344 18.660156 C 97.953125 18.660156 97.632812 18.570312 97.441406 18.390625 C 97.253906 18.214844 97.15625 17.925781 97.15625 17.53125 L 97.15625 12.863281 L 94.183594 11.816406 L 94.183594 17.507812 C 94.183594 19.949219 95.429688 21.171875 97.917969 21.171875 Z M 99.773438 11.816406 L 99.773438 9.371094 L 97.15625 9.371094 L 97.15625 6.449219 L 94.183594 6.449219 L 94.183594 9.371094 L 92.785156 9.371094 L 92.785156 11.816406 Z M 99.773438 11.816406 " fill-opacity="1" fill-rule="nonzero"/><g clip-path="url(#9ef6ef3b68)"><path fill="#232851" d="M 106.011719 21.171875 L 107.867188 21.171875 L 107.867188 18.660156 L 106.496094 18.660156 C 106.042969 18.660156 105.722656 18.570312 105.535156 18.390625 C 105.34375 18.214844 105.25 17.925781 105.25 17.53125 L 105.25 12.863281 L 102.273438 11.816406 L 102.273438 17.507812 C 102.273438 19.949219 103.519531 21.171875 106.011719 21.171875 Z M 107.867188 11.816406 L 107.867188 9.371094 L 105.25 9.371094 L 105.25 6.449219 L 102.273438 6.449219 L 102.273438 9.371094 L 100.878906 9.371094 L 100.878906 11.816406 Z M 107.867188 11.816406 " fill-opacity="1" fill-rule="nonzero"/></g><path fill="#232851" d="M 43.539062 24.785156 L 42.375 24.785156 L 42.375 27.773438 L 41.65625 27.773438 L 41.65625 24.785156 L 40.492188 24.785156 L 40.492188 24.121094 L 43.539062 24.121094 Z M 43.539062 24.785156 " fill-opacity="1" fill-rule="nonzero"/><path fill="#232851" d="M 45.230469 25.101562 L 45.199219 25.796875 C 45.136719 25.769531 45.050781 25.757812 44.945312 25.757812 C 44.832031 25.757812 44.722656 25.785156 44.617188 25.835938 C 44.511719 25.890625 44.425781 25.96875 44.363281 26.070312 C 44.296875 26.167969 44.265625 26.285156 44.265625 26.417969 L 44.265625 27.773438 L 43.574219 27.773438 L 43.574219 25.160156 L 44.144531 25.160156 L 44.203125 25.527344 C 44.398438 25.238281 44.6875 25.089844 45.074219 25.089844 C 45.132812 25.089844 45.183594 25.09375 45.234375 25.101562 Z M 45.230469 25.101562 " fill-opacity="1" fill-rule="nonzero"/><path fill="#232851" d="M 47.449219 25.363281 C 47.644531 25.546875 47.742188 25.824219 47.742188 26.195312 L 47.742188 27.773438 L 47.203125 27.773438 L 47.136719 27.425781 C 47.058594 27.535156 46.949219 27.632812 46.800781 27.714844 C 46.652344 27.800781 46.484375 27.839844 46.296875 27.839844 C 46.027344 27.839844 45.808594 27.769531 45.644531 27.632812 C 45.476562 27.496094 45.394531 27.308594 45.394531 27.070312 C 45.394531 26.867188 45.460938 26.703125 45.597656 26.578125 C 45.730469 26.453125 45.917969 26.359375 46.15625 26.296875 C 46.394531 26.230469 46.695312 26.179688 47.058594 26.140625 L 47.058594 26.105469 C 47.058594 25.957031 47.019531 25.84375 46.949219 25.773438 C 46.875 25.699219 46.769531 25.664062 46.632812 25.664062 C 46.492188 25.664062 46.386719 25.699219 46.308594 25.769531 C 46.230469 25.839844 46.191406 25.929688 46.191406 26.039062 L 45.507812 26.039062 C 45.507812 25.859375 45.558594 25.695312 45.652344 25.554688 C 45.75 25.410156 45.882812 25.296875 46.054688 25.214844 C 46.226562 25.132812 46.421875 25.09375 46.640625 25.09375 C 46.984375 25.09375 47.253906 25.183594 47.449219 25.367188 Z M 46.847656 27.191406 C 46.960938 27.09375 47.03125 26.964844 47.058594 26.800781 L 47.058594 26.59375 C 46.738281 26.613281 46.5 26.65625 46.339844 26.730469 C 46.179688 26.800781 46.101562 26.90625 46.101562 27.039062 C 46.101562 27.136719 46.136719 27.210938 46.199219 27.261719 C 46.269531 27.3125 46.355469 27.335938 46.460938 27.335938 C 46.605469 27.335938 46.734375 27.289062 46.847656 27.191406 Z M 46.847656 27.191406 " fill-opacity="1" fill-rule="nonzero"/><path fill="#232851" d="M 50.488281 25.367188 C 50.644531 25.550781 50.722656 25.839844 50.722656 26.230469 L 50.722656 27.773438 L 50.039062 27.773438 L 50.039062 26.230469 C 50.039062 26.066406 50 25.941406 49.917969 25.859375 C 49.835938 25.777344 49.730469 25.734375 49.59375 25.734375 C 49.421875 25.734375 49.273438 25.796875 49.15625 25.921875 C 49.042969 26.046875 48.984375 26.226562 48.984375 26.457031 L 48.984375 27.773438 L 48.296875 27.773438 L 48.296875 25.160156 L 48.839844 25.160156 L 48.910156 25.53125 C 49.097656 25.238281 49.394531 25.089844 49.800781 25.089844 C 50.105469 25.089844 50.332031 25.183594 50.488281 25.367188 Z M 50.488281 25.367188 " fill-opacity="1" fill-rule="nonzero"/><path fill="#232851" d="M 51.535156 27.605469 C 51.308594 27.441406 51.195312 27.203125 51.1875 26.890625 L 51.839844 26.890625 C 51.855469 27.035156 51.910156 27.148438 52.007812 27.226562 C 52.105469 27.304688 52.234375 27.34375 52.390625 27.34375 C 52.53125 27.34375 52.648438 27.3125 52.738281 27.25 C 52.824219 27.191406 52.871094 27.105469 52.871094 27 C 52.871094 26.851562 52.765625 26.761719 52.550781 26.730469 L 51.976562 26.640625 C 51.753906 26.609375 51.574219 26.53125 51.449219 26.410156 C 51.320312 26.285156 51.253906 26.121094 51.253906 25.914062 C 51.253906 25.660156 51.351562 25.460938 51.546875 25.3125 C 51.738281 25.164062 52.011719 25.085938 52.359375 25.085938 C 52.710938 25.085938 52.980469 25.164062 53.183594 25.3125 C 53.382812 25.464844 53.484375 25.683594 53.488281 25.976562 L 52.828125 25.976562 C 52.832031 25.859375 52.792969 25.765625 52.714844 25.699219 C 52.636719 25.628906 52.527344 25.597656 52.386719 25.597656 C 52.257812 25.597656 52.152344 25.625 52.074219 25.683594 C 51.996094 25.742188 51.960938 25.8125 51.960938 25.902344 C 51.960938 26.023438 52.042969 26.09375 52.210938 26.121094 L 52.683594 26.195312 C 53.265625 26.289062 53.554688 26.550781 53.554688 26.980469 C 53.554688 27.246094 53.453125 27.460938 53.242188 27.617188 C 53.035156 27.773438 52.753906 27.855469 52.402344 27.855469 C 52.046875 27.855469 51.757812 27.773438 51.535156 27.605469 Z M 51.535156 27.605469 " fill-opacity="1" fill-rule="nonzero"/><path fill="#232851" d="M 55.046875 24.570312 C 54.980469 24.679688 54.949219 24.828125 54.949219 25.019531 L 54.949219 25.160156 L 55.757812 25.160156 L 55.757812 25.746094 L 54.949219 25.746094 L 54.949219 27.773438 L 54.265625 27.773438 L 54.265625 25.746094 L 53.761719 25.746094 L 53.761719 25.269531 L 54.265625 25.179688 L 54.265625 25.070312 C 54.265625 24.664062 54.355469 24.351562 54.539062 24.125 C 54.71875 23.898438 54.992188 23.785156 55.355469 23.785156 C 55.585938 23.785156 55.792969 23.832031 55.980469 23.925781 L 55.769531 24.5 C 55.644531 24.441406 55.515625 24.410156 55.386719 24.410156 C 55.226562 24.410156 55.113281 24.464844 55.046875 24.570312 Z M 55.046875 24.570312 " fill-opacity="1" fill-rule="nonzero"/><path fill="#232851" d="M 56.546875 27.667969 C 56.351562 27.554688 56.195312 27.394531 56.085938 27.1875 C 55.976562 26.976562 55.921875 26.738281 55.921875 26.46875 C 55.921875 26.199219 55.976562 25.964844 56.089844 25.753906 C 56.199219 25.542969 56.355469 25.382812 56.550781 25.265625 C 56.746094 25.148438 56.96875 25.089844 57.21875 25.089844 C 57.46875 25.089844 57.691406 25.148438 57.890625 25.261719 C 58.089844 25.378906 58.242188 25.539062 58.355469 25.75 C 58.464844 25.960938 58.519531 26.199219 58.519531 26.46875 C 58.519531 26.738281 58.464844 26.972656 58.355469 27.179688 C 58.242188 27.386719 58.085938 27.550781 57.890625 27.667969 C 57.691406 27.78125 57.46875 27.839844 57.21875 27.839844 C 56.96875 27.839844 56.746094 27.785156 56.546875 27.667969 Z M 57.652344 27.015625 C 57.761719 26.878906 57.816406 26.695312 57.816406 26.46875 C 57.816406 26.238281 57.761719 26.058594 57.652344 25.921875 C 57.546875 25.785156 57.402344 25.714844 57.21875 25.714844 C 57.039062 25.714844 56.898438 25.785156 56.789062 25.921875 C 56.679688 26.058594 56.628906 26.238281 56.628906 26.46875 C 56.628906 26.695312 56.679688 26.878906 56.785156 27.015625 C 56.894531 27.148438 57.039062 27.214844 57.21875 27.214844 C 57.402344 27.214844 57.546875 27.148438 57.652344 27.015625 Z M 57.652344 27.015625 " fill-opacity="1" fill-rule="nonzero"/><path fill="#232851" d="M 60.6875 25.101562 L 60.65625 25.796875 C 60.59375 25.769531 60.507812 25.757812 60.398438 25.757812 C 60.285156 25.757812 60.179688 25.785156 60.074219 25.835938 C 59.96875 25.890625 59.882812 25.96875 59.816406 26.070312 C 59.753906 26.167969 59.71875 26.285156 59.71875 26.417969 L 59.71875 27.773438 L 59.03125 27.773438 L 59.03125 25.160156 L 59.601562 25.160156 L 59.660156 25.527344 C 59.855469 25.238281 60.144531 25.089844 60.527344 25.089844 C 60.585938 25.089844 60.640625 25.09375 60.6875 25.101562 Z M 60.6875 25.101562 " fill-opacity="1" fill-rule="nonzero"/><path fill="#232851" d="M 64.753906 25.371094 C 64.898438 25.558594 64.972656 25.84375 64.972656 26.230469 L 64.972656 27.773438 L 64.285156 27.773438 L 64.285156 26.230469 C 64.285156 26.066406 64.25 25.945312 64.179688 25.859375 C 64.105469 25.777344 64.011719 25.738281 63.898438 25.738281 C 63.746094 25.738281 63.613281 25.800781 63.503906 25.929688 C 63.394531 26.058594 63.339844 26.234375 63.339844 26.460938 L 63.339844 27.773438 L 62.652344 27.773438 L 62.652344 26.230469 C 62.652344 26.066406 62.617188 25.945312 62.546875 25.863281 C 62.472656 25.777344 62.378906 25.738281 62.261719 25.738281 C 62.109375 25.738281 61.976562 25.800781 61.867188 25.929688 C 61.757812 26.058594 61.703125 26.234375 61.703125 26.460938 L 61.703125 27.773438 L 61.015625 27.773438 L 61.015625 25.160156 L 61.558594 25.160156 L 61.625 25.53125 C 61.707031 25.398438 61.816406 25.292969 61.960938 25.210938 C 62.097656 25.132812 62.269531 25.09375 62.464844 25.09375 C 62.839844 25.09375 63.089844 25.246094 63.226562 25.554688 C 63.421875 25.246094 63.710938 25.09375 64.09375 25.09375 C 64.386719 25.09375 64.605469 25.1875 64.75 25.375 Z M 64.753906 25.371094 " fill-opacity="1" fill-rule="nonzero"/><path fill="#232851" d="M 66.242188 24.78125 L 65.558594 24.78125 L 65.558594 24.121094 L 66.242188 24.121094 Z M 66.242188 27.773438 L 65.558594 27.773438 L 65.558594 25.160156 L 66.242188 25.160156 Z M 66.242188 27.773438 " fill-opacity="1" fill-rule="nonzero"/><path fill="#232851" d="M 69.042969 25.367188 C 69.199219 25.550781 69.28125 25.839844 69.28125 26.230469 L 69.28125 27.773438 L 68.59375 27.773438 L 68.59375 26.230469 C 68.59375 26.066406 68.554688 25.941406 68.472656 25.859375 C 68.394531 25.777344 68.285156 25.734375 68.152344 25.734375 C 67.976562 25.734375 67.832031 25.796875 67.714844 25.921875 C 67.597656 26.046875 67.539062 26.226562 67.539062 26.457031 L 67.539062 27.773438 L 66.855469 27.773438 L 66.855469 25.160156 L 67.394531 25.160156 L 67.46875 25.53125 C 67.652344 25.238281 67.949219 25.089844 68.359375 25.089844 C 68.660156 25.089844 68.890625 25.183594 69.042969 25.367188 Z M 69.042969 25.367188 " fill-opacity="1" fill-rule="nonzero"/><path fill="#232851" d="M 72.335938 25.160156 L 72.335938 27.558594 C 72.335938 28.042969 72.222656 28.402344 71.992188 28.640625 C 71.761719 28.878906 71.445312 29 71.050781 29 C 70.699219 29 70.414062 28.917969 70.195312 28.75 C 69.976562 28.582031 69.851562 28.332031 69.824219 27.996094 L 70.464844 27.996094 C 70.492188 28.125 70.554688 28.226562 70.652344 28.296875 C 70.753906 28.371094 70.875 28.40625 71.019531 28.40625 C 71.214844 28.40625 71.367188 28.339844 71.480469 28.203125 C 71.59375 28.070312 71.652344 27.886719 71.652344 27.652344 L 71.652344 27.550781 C 71.46875 27.742188 71.226562 27.839844 70.9375 27.839844 C 70.695312 27.839844 70.484375 27.78125 70.300781 27.667969 C 70.117188 27.554688 69.972656 27.394531 69.875 27.183594 C 69.773438 26.976562 69.722656 26.738281 69.722656 26.460938 C 69.722656 26.1875 69.777344 25.941406 69.882812 25.734375 C 69.992188 25.527344 70.136719 25.367188 70.316406 25.257812 C 70.496094 25.148438 70.691406 25.097656 70.898438 25.097656 C 71.066406 25.097656 71.21875 25.128906 71.359375 25.199219 C 71.503906 25.269531 71.621094 25.363281 71.71875 25.484375 L 71.769531 25.160156 Z M 71.652344 26.195312 C 71.613281 26.042969 71.542969 25.929688 71.441406 25.84375 C 71.34375 25.757812 71.214844 25.714844 71.066406 25.714844 C 70.871094 25.714844 70.714844 25.785156 70.597656 25.921875 C 70.484375 26.058594 70.425781 26.242188 70.425781 26.46875 C 70.425781 26.695312 70.484375 26.878906 70.597656 27.015625 C 70.714844 27.148438 70.871094 27.21875 71.070312 27.21875 C 71.222656 27.21875 71.347656 27.179688 71.453125 27.101562 C 71.558594 27.023438 71.625 26.914062 71.652344 26.769531 Z M 71.652344 26.195312 " fill-opacity="1" fill-rule="nonzero"/><path fill="#232851" d="M 74.398438 24.121094 L 75.125 24.121094 L 75.125 27.773438 L 74.398438 27.773438 Z M 74.398438 24.121094 " fill-opacity="1" fill-rule="nonzero"/><path fill="#232851" d="M 77.984375 25.367188 C 78.140625 25.550781 78.21875 25.839844 78.21875 26.230469 L 78.21875 27.773438 L 77.535156 27.773438 L 77.535156 26.230469 C 77.535156 26.066406 77.496094 25.941406 77.414062 25.859375 C 77.332031 25.777344 77.226562 25.734375 77.089844 25.734375 C 76.917969 25.734375 76.769531 25.796875 76.652344 25.921875 C 76.535156 26.046875 76.480469 26.226562 76.480469 26.457031 L 76.480469 27.773438 L 75.792969 27.773438 L 75.792969 25.160156 L 76.335938 25.160156 L 76.40625 25.53125 C 76.59375 25.238281 76.890625 25.089844 77.296875 25.089844 C 77.601562 25.089844 77.828125 25.183594 77.984375 25.367188 Z M 77.984375 25.367188 " fill-opacity="1" fill-rule="nonzero"/><path fill="#232851" d="M 79.804688 24.570312 C 79.738281 24.679688 79.707031 24.828125 79.707031 25.019531 L 79.707031 25.160156 L 80.515625 25.160156 L 80.515625 25.746094 L 79.707031 25.746094 L 79.707031 27.773438 L 79.023438 27.773438 L 79.023438 25.746094 L 78.515625 25.746094 L 78.515625 25.269531 L 79.023438 25.179688 L 79.023438 25.070312 C 79.023438 24.664062 79.113281 24.351562 79.296875 24.125 C 79.476562 23.898438 79.75 23.785156 80.113281 23.785156 C 80.34375 23.785156 80.550781 23.832031 80.734375 23.925781 L 80.523438 24.5 C 80.402344 24.441406 80.273438 24.410156 80.144531 24.410156 C 79.984375 24.410156 79.867188 24.464844 79.804688 24.570312 Z M 79.804688 24.570312 " fill-opacity="1" fill-rule="nonzero"/><path fill="#232851" d="M 82.539062 25.101562 L 82.507812 25.796875 C 82.441406 25.769531 82.355469 25.757812 82.25 25.757812 C 82.136719 25.757812 82.027344 25.785156 81.921875 25.835938 C 81.816406 25.890625 81.734375 25.96875 81.667969 26.070312 C 81.601562 26.167969 81.570312 26.285156 81.570312 26.417969 L 81.570312 27.773438 L 80.878906 27.773438 L 80.878906 25.160156 L 81.453125 25.160156 L 81.507812 25.527344 C 81.703125 25.238281 81.996094 25.089844 82.378906 25.089844 C 82.4375 25.089844 82.492188 25.09375 82.539062 25.101562 Z M 82.539062 25.101562 " fill-opacity="1" fill-rule="nonzero"/><path fill="#232851" d="M 84.757812 25.363281 C 84.953125 25.546875 85.050781 25.824219 85.050781 26.195312 L 85.050781 27.773438 L 84.507812 27.773438 L 84.441406 27.425781 C 84.367188 27.535156 84.253906 27.632812 84.109375 27.714844 C 83.960938 27.800781 83.792969 27.839844 83.601562 27.839844 C 83.332031 27.839844 83.113281 27.769531 82.949219 27.632812 C 82.785156 27.496094 82.703125 27.308594 82.703125 27.070312 C 82.703125 26.867188 82.769531 26.703125 82.902344 26.578125 C 83.035156 26.453125 83.222656 26.359375 83.460938 26.296875 C 83.699219 26.230469 84 26.179688 84.363281 26.140625 L 84.363281 26.105469 C 84.363281 25.957031 84.328125 25.84375 84.253906 25.773438 C 84.179688 25.699219 84.074219 25.664062 83.9375 25.664062 C 83.800781 25.664062 83.695312 25.699219 83.617188 25.769531 C 83.539062 25.839844 83.5 25.929688 83.5 26.039062 L 82.816406 26.039062 C 82.816406 25.859375 82.863281 25.695312 82.960938 25.554688 C 83.054688 25.410156 83.191406 25.296875 83.359375 25.214844 C 83.53125 25.132812 83.726562 25.09375 83.949219 25.09375 C 84.292969 25.09375 84.558594 25.183594 84.753906 25.367188 Z M 84.152344 27.191406 C 84.265625 27.09375 84.335938 26.964844 84.363281 26.800781 L 84.363281 26.59375 C 84.046875 26.613281 83.808594 26.65625 83.648438 26.730469 C 83.488281 26.800781 83.40625 26.90625 83.40625 27.039062 C 83.40625 27.136719 83.441406 27.210938 83.507812 27.261719 C 83.574219 27.3125 83.660156 27.335938 83.765625 27.335938 C 83.910156 27.335938 84.039062 27.289062 84.152344 27.191406 Z M 84.152344 27.191406 " fill-opacity="1" fill-rule="nonzero"/><path fill="#232851" d="M 85.785156 27.605469 C 85.558594 27.441406 85.441406 27.203125 85.4375 26.890625 L 86.089844 26.890625 C 86.101562 27.035156 86.160156 27.148438 86.257812 27.226562 C 86.355469 27.304688 86.484375 27.34375 86.640625 27.34375 C 86.78125 27.34375 86.898438 27.3125 86.984375 27.25 C 87.074219 27.191406 87.121094 27.105469 87.121094 27 C 87.121094 26.851562 87.011719 26.761719 86.800781 26.730469 L 86.222656 26.640625 C 86 26.609375 85.824219 26.53125 85.695312 26.410156 C 85.566406 26.285156 85.503906 26.121094 85.503906 25.914062 C 85.503906 25.660156 85.601562 25.460938 85.792969 25.3125 C 85.988281 25.164062 86.261719 25.085938 86.609375 25.085938 C 86.960938 25.085938 87.230469 25.164062 87.429688 25.3125 C 87.632812 25.464844 87.734375 25.683594 87.738281 25.976562 L 87.078125 25.976562 C 87.082031 25.859375 87.042969 25.765625 86.964844 25.699219 C 86.886719 25.628906 86.777344 25.597656 86.636719 25.597656 C 86.503906 25.597656 86.402344 25.625 86.324219 25.683594 C 86.246094 25.742188 86.207031 25.8125 86.207031 25.902344 C 86.207031 26.023438 86.292969 26.09375 86.460938 26.121094 L 86.933594 26.195312 C 87.515625 26.289062 87.804688 26.550781 87.804688 26.980469 C 87.804688 27.246094 87.699219 27.460938 87.492188 27.617188 C 87.285156 27.773438 87.003906 27.855469 86.652344 27.855469 C 86.296875 27.855469 86.007812 27.773438 85.785156 27.605469 Z M 85.785156 27.605469 " fill-opacity="1" fill-rule="nonzero"/><path fill="#232851" d="M 90.140625 27.601562 C 90.050781 27.671875 89.9375 27.726562 89.804688 27.773438 C 89.667969 27.820312 89.527344 27.839844 89.382812 27.839844 C 89.09375 27.839844 88.875 27.75 88.730469 27.570312 C 88.585938 27.390625 88.515625 27.144531 88.515625 26.832031 L 88.515625 25.746094 L 88.007812 25.746094 L 88.007812 25.269531 L 88.515625 25.179688 L 88.515625 24.421875 L 89.199219 24.421875 L 89.199219 25.160156 L 90.003906 25.160156 L 90.003906 25.746094 L 89.199219 25.746094 L 89.199219 26.714844 C 89.199219 26.875 89.226562 26.996094 89.285156 27.085938 C 89.339844 27.171875 89.425781 27.21875 89.542969 27.21875 C 89.660156 27.21875 89.785156 27.183594 89.914062 27.109375 Z M 90.140625 27.601562 " fill-opacity="1" fill-rule="nonzero"/><path fill="#232851" d="M 92.183594 25.101562 L 92.152344 25.796875 C 92.085938 25.769531 92.003906 25.757812 91.894531 25.757812 C 91.78125 25.757812 91.671875 25.785156 91.570312 25.835938 C 91.464844 25.890625 91.378906 25.96875 91.3125 26.070312 C 91.25 26.167969 91.214844 26.285156 91.214844 26.417969 L 91.214844 27.773438 L 90.527344 27.773438 L 90.527344 25.160156 L 91.097656 25.160156 L 91.15625 25.527344 C 91.351562 25.238281 91.640625 25.089844 92.023438 25.089844 C 92.082031 25.089844 92.136719 25.09375 92.183594 25.101562 Z M 92.183594 25.101562 " fill-opacity="1" fill-rule="nonzero"/><path fill="#232851" d="M 94.871094 25.160156 L 94.871094 27.773438 L 94.332031 27.773438 L 94.257812 27.402344 C 94.074219 27.695312 93.785156 27.839844 93.394531 27.839844 C 93.09375 27.839844 92.871094 27.75 92.71875 27.566406 C 92.570312 27.386719 92.492188 27.097656 92.492188 26.703125 L 92.492188 25.160156 L 93.175781 25.160156 L 93.175781 26.703125 C 93.175781 26.871094 93.214844 26.992188 93.289062 27.074219 C 93.363281 27.15625 93.464844 27.195312 93.59375 27.195312 C 93.757812 27.195312 93.898438 27.132812 94.011719 27.011719 C 94.125 26.886719 94.179688 26.707031 94.179688 26.480469 L 94.179688 25.160156 Z M 94.871094 25.160156 " fill-opacity="1" fill-rule="nonzero"/><path fill="#232851" d="M 95.933594 27.671875 C 95.742188 27.558594 95.59375 27.398438 95.492188 27.195312 C 95.386719 26.988281 95.335938 26.746094 95.335938 26.46875 C 95.335938 26.191406 95.386719 25.953125 95.492188 25.746094 C 95.601562 25.539062 95.75 25.378906 95.941406 25.261719 C 96.132812 25.148438 96.351562 25.089844 96.601562 25.089844 C 96.929688 25.089844 97.203125 25.1875 97.425781 25.382812 C 97.644531 25.578125 97.769531 25.84375 97.804688 26.183594 L 97.105469 26.183594 C 97.085938 26.039062 97.035156 25.921875 96.941406 25.839844 C 96.851562 25.757812 96.734375 25.714844 96.59375 25.714844 C 96.425781 25.714844 96.289062 25.785156 96.1875 25.917969 C 96.089844 26.054688 96.039062 26.234375 96.039062 26.464844 C 96.039062 26.695312 96.089844 26.878906 96.1875 27.015625 C 96.289062 27.152344 96.421875 27.21875 96.589844 27.21875 C 96.722656 27.21875 96.835938 27.175781 96.929688 27.097656 C 97.023438 27.015625 97.082031 26.898438 97.105469 26.75 L 97.796875 26.75 C 97.78125 26.976562 97.71875 27.171875 97.609375 27.335938 C 97.503906 27.5 97.359375 27.625 97.1875 27.710938 C 97.011719 27.796875 96.8125 27.839844 96.59375 27.839844 C 96.34375 27.839844 96.125 27.785156 95.933594 27.671875 Z M 95.933594 27.671875 " fill-opacity="1" fill-rule="nonzero"/><path fill="#232851" d="M 100.132812 27.601562 C 100.042969 27.671875 99.929688 27.726562 99.792969 27.773438 C 99.660156 27.820312 99.519531 27.839844 99.375 27.839844 C 99.082031 27.839844 98.863281 27.75 98.722656 27.570312 C 98.578125 27.390625 98.503906 27.144531 98.503906 26.832031 L 98.503906 25.746094 L 98 25.746094 L 98 25.269531 L 98.503906 25.179688 L 98.503906 24.421875 L 99.1875 24.421875 L 99.1875 25.160156 L 99.992188 25.160156 L 99.992188 25.746094 L 99.1875 25.746094 L 99.1875 26.714844 C 99.1875 26.875 99.21875 26.996094 99.273438 27.085938 C 99.332031 27.171875 99.417969 27.21875 99.535156 27.21875 C 99.652344 27.21875 99.777344 27.183594 99.90625 27.109375 Z M 100.132812 27.601562 " fill-opacity="1" fill-rule="nonzero"/><path fill="#232851" d="M 102.875 25.160156 L 102.875 27.773438 L 102.335938 27.773438 L 102.261719 27.402344 C 102.078125 27.695312 101.789062 27.839844 101.398438 27.839844 C 101.097656 27.839844 100.875 27.75 100.722656 27.566406 C 100.570312 27.386719 100.496094 27.097656 100.496094 26.703125 L 100.496094 25.160156 L 101.179688 25.160156 L 101.179688 26.703125 C 101.179688 26.871094 101.21875 26.992188 101.292969 27.074219 C 101.367188 27.15625 101.46875 27.195312 101.597656 27.195312 C 101.761719 27.195312 101.902344 27.132812 102.015625 27.011719 C 102.128906 26.886719 102.183594 26.707031 102.183594 26.480469 L 102.183594 25.160156 Z M 102.875 25.160156 " fill-opacity="1" fill-rule="nonzero"/><path fill="#232851" d="M 105.109375 25.101562 L 105.078125 25.796875 C 105.011719 25.769531 104.925781 25.757812 104.820312 25.757812 C 104.707031 25.757812 104.597656 25.785156 104.492188 25.835938 C 104.386719 25.890625 104.304688 25.96875 104.238281 26.070312 C 104.171875 26.167969 104.140625 26.285156 104.140625 26.417969 L 104.140625 27.773438 L 103.449219 27.773438 L 103.449219 25.160156 L 104.023438 25.160156 L 104.078125 25.527344 C 104.273438 25.238281 104.566406 25.089844 104.949219 25.089844 C 105.007812 25.089844 105.0625 25.09375 105.109375 25.101562 Z M 105.109375 25.101562 " fill-opacity="1" fill-rule="nonzero"/><g clip-path="url(#93e606d7f7)"><path fill="#232851" d="M 107.867188 26.691406 L 106.03125 26.691406 C 106.058594 26.867188 106.125 27.003906 106.226562 27.101562 C 106.328125 27.203125 106.46875 27.253906 106.640625 27.253906 C 106.777344 27.253906 106.886719 27.222656 106.980469 27.15625 C 107.070312 27.09375 107.128906 27.011719 107.152344 26.914062 L 107.816406 26.914062 C 107.808594 27.097656 107.75 27.253906 107.640625 27.394531 C 107.53125 27.535156 107.386719 27.644531 107.207031 27.722656 C 107.027344 27.800781 106.828125 27.839844 106.609375 27.839844 C 106.347656 27.839844 106.117188 27.78125 105.921875 27.667969 C 105.726562 27.550781 105.578125 27.390625 105.472656 27.1875 C 105.371094 26.980469 105.320312 26.746094 105.320312 26.484375 C 105.320312 26.21875 105.375 25.96875 105.480469 25.757812 C 105.589844 25.550781 105.742188 25.386719 105.9375 25.265625 C 106.132812 25.148438 106.359375 25.089844 106.617188 25.089844 C 106.875 25.089844 107.09375 25.144531 107.28125 25.253906 C 107.46875 25.359375 107.613281 25.511719 107.714844 25.707031 C 107.816406 25.902344 107.867188 26.128906 107.867188 26.386719 Z M 106.253906 25.808594 C 106.152344 25.894531 106.082031 26.015625 106.046875 26.171875 L 107.164062 26.171875 C 107.140625 26.015625 107.085938 25.894531 107 25.808594 C 106.914062 25.722656 106.789062 25.679688 106.632812 25.679688 C 106.476562 25.679688 106.355469 25.722656 106.253906 25.808594 Z M 106.253906 25.808594 " fill-opacity="1" fill-rule="nonzero"/></g><g transform="matrix(1, 0, 0, 1, 111, 17)"><g clip-path="url(#4604450da6)"><g fill="#232851" fill-opacity="1"><g transform="translate(0.946836, 9.240834)"><g><path d="M 4.375 -1.9375 C 4.46875 -1.78125 4.535156 -1.582031 4.578125 -1.34375 C 4.628906 -1.113281 4.65625 -0.832031 4.65625 -0.5 C 4.65625 -0.382812 4.648438 -0.28125 4.640625 -0.1875 C 4.640625 -0.101562 4.632812 -0.03125 4.625 0.03125 C 4.582031 0.0625 4.523438 0.0820312 4.453125 0.09375 C 4.390625 0.113281 4.332031 0.125 4.28125 0.125 C 4.175781 0.125 4.085938 0.0664062 4.015625 -0.046875 C 3.941406 -0.160156 3.898438 -0.398438 3.890625 -0.765625 C 3.890625 -0.941406 3.875 -1.125 3.84375 -1.3125 C 3.820312 -1.5 3.796875 -1.691406 3.765625 -1.890625 C 3.617188 -1.992188 3.429688 -2.0625 3.203125 -2.09375 C 2.972656 -2.125 2.695312 -2.140625 2.375 -2.140625 C 2.238281 -2.140625 2.101562 -2.132812 1.96875 -2.125 C 1.832031 -2.125 1.691406 -2.117188 1.546875 -2.109375 C 1.460938 -1.828125 1.390625 -1.566406 1.328125 -1.328125 C 1.265625 -1.085938 1.21875 -0.882812 1.1875 -0.71875 C 1.132812 -0.414062 1.070312 -0.195312 1 -0.0625 C 0.925781 0.0625 0.8125 0.125 0.65625 0.125 C 0.632812 0.125 0.582031 0.117188 0.5 0.109375 C 0.425781 0.109375 0.363281 0.0976562 0.3125 0.078125 C 0.414062 -0.316406 0.519531 -0.691406 0.625 -1.046875 C 0.738281 -1.398438 0.847656 -1.738281 0.953125 -2.0625 C 0.835938 -2.039062 0.722656 -2.019531 0.609375 -2 C 0.492188 -1.988281 0.390625 -1.972656 0.296875 -1.953125 C 0.242188 -2.046875 0.296875 -2.125 0.453125 -2.1875 C 0.609375 -2.257812 0.816406 -2.320312 1.078125 -2.375 C 1.234375 -2.789062 1.394531 -3.179688 1.5625 -3.546875 C 1.738281 -3.910156 1.921875 -4.257812 2.109375 -4.59375 C 2.316406 -4.96875 2.492188 -5.238281 2.640625 -5.40625 C 2.785156 -5.582031 2.910156 -5.691406 3.015625 -5.734375 C 3.117188 -5.773438 3.21875 -5.796875 3.3125 -5.796875 C 3.476562 -5.367188 3.625 -4.957031 3.75 -4.5625 C 3.882812 -4.164062 4 -3.753906 4.09375 -3.328125 C 4.195312 -2.898438 4.289062 -2.4375 4.375 -1.9375 Z M 2.6875 -2.515625 C 2.882812 -2.515625 3.0625 -2.503906 3.21875 -2.484375 C 3.382812 -2.472656 3.53125 -2.453125 3.65625 -2.421875 C 3.582031 -2.773438 3.492188 -3.125 3.390625 -3.46875 C 3.296875 -3.8125 3.195312 -4.125 3.09375 -4.40625 C 3 -4.695312 2.914062 -4.941406 2.84375 -5.140625 C 2.601562 -4.765625 2.378906 -4.335938 2.171875 -3.859375 C 1.972656 -3.378906 1.796875 -2.910156 1.640625 -2.453125 C 1.828125 -2.472656 2.007812 -2.488281 2.1875 -2.5 C 2.375 -2.507812 2.539062 -2.515625 2.6875 -2.515625 Z M 2.6875 -2.515625 "/></g></g></g><g fill="#232851" fill-opacity="1"><g transform="translate(6.114321, 9.240834)"><g><path d="M 1.5 0.125 C 1.289062 0.125 1.097656 0.0820312 0.921875 0 C 0.742188 -0.09375 0.597656 -0.25 0.484375 -0.46875 C 0.378906 -0.695312 0.328125 -1 0.328125 -1.375 C 0.328125 -1.738281 0.378906 -2.078125 0.484375 -2.390625 C 0.585938 -2.703125 0.726562 -2.976562 0.90625 -3.21875 C 1.082031 -3.457031 1.289062 -3.644531 1.53125 -3.78125 C 1.769531 -3.914062 2.023438 -3.984375 2.296875 -3.984375 C 2.566406 -3.984375 2.773438 -3.914062 2.921875 -3.78125 C 3.066406 -3.644531 3.140625 -3.472656 3.140625 -3.265625 C 3.140625 -3.117188 3.101562 -3.003906 3.03125 -2.921875 C 2.96875 -2.835938 2.859375 -2.796875 2.703125 -2.796875 C 2.691406 -2.796875 2.675781 -2.796875 2.65625 -2.796875 C 2.644531 -2.796875 2.625 -2.800781 2.59375 -2.8125 C 2.59375 -3.0625 2.539062 -3.238281 2.4375 -3.34375 C 2.34375 -3.457031 2.203125 -3.515625 2.015625 -3.515625 C 1.710938 -3.515625 1.457031 -3.378906 1.25 -3.109375 C 1.050781 -2.847656 0.953125 -2.460938 0.953125 -1.953125 C 0.953125 -1.441406 1.039062 -1.066406 1.21875 -0.828125 C 1.394531 -0.585938 1.617188 -0.46875 1.890625 -0.46875 C 2.035156 -0.46875 2.203125 -0.503906 2.390625 -0.578125 C 2.578125 -0.660156 2.757812 -0.804688 2.9375 -1.015625 C 2.945312 -0.992188 2.953125 -0.96875 2.953125 -0.9375 C 2.953125 -0.914062 2.953125 -0.890625 2.953125 -0.859375 C 2.953125 -0.660156 2.875 -0.488281 2.71875 -0.34375 C 2.570312 -0.195312 2.382812 -0.0820312 2.15625 0 C 1.925781 0.0820312 1.707031 0.125 1.5 0.125 Z M 1.5 0.125 "/></g></g></g><g fill="#232851" fill-opacity="1"><g transform="translate(9.410525, 9.240834)"><g><path d="M 4.0625 -0.984375 C 4.101562 -0.941406 4.125 -0.882812 4.125 -0.8125 C 4.125 -0.695312 4.070312 -0.566406 3.96875 -0.421875 C 3.863281 -0.273438 3.738281 -0.144531 3.59375 -0.03125 C 3.445312 0.0703125 3.3125 0.125 3.1875 0.125 C 3.03125 0.125 2.90625 0.0507812 2.8125 -0.09375 C 2.726562 -0.238281 2.664062 -0.414062 2.625 -0.625 C 2.59375 -0.84375 2.570312 -1.054688 2.5625 -1.265625 C 2.4375 -1.015625 2.289062 -0.785156 2.125 -0.578125 C 1.957031 -0.367188 1.78125 -0.195312 1.59375 -0.0625 C 1.414062 0.0625 1.226562 0.125 1.03125 0.125 C 0.84375 0.125 0.703125 0.0664062 0.609375 -0.046875 C 0.515625 -0.171875 0.445312 -0.320312 0.40625 -0.5 C 0.375 -0.6875 0.359375 -0.875 0.359375 -1.0625 C 0.359375 -1.414062 0.40625 -1.757812 0.5 -2.09375 C 0.59375 -2.4375 0.726562 -2.75 0.90625 -3.03125 C 1.082031 -3.320312 1.289062 -3.550781 1.53125 -3.71875 C 1.78125 -3.894531 2.0625 -3.984375 2.375 -3.984375 C 2.75 -3.984375 3.078125 -3.804688 3.359375 -3.453125 C 3.367188 -3.347656 3.375 -3.222656 3.375 -3.078125 C 3.375 -2.953125 3.363281 -2.816406 3.34375 -2.671875 C 3.332031 -2.523438 3.304688 -2.394531 3.265625 -2.28125 C 3.265625 -2.15625 3.265625 -2.023438 3.265625 -1.890625 C 3.265625 -1.753906 3.265625 -1.625 3.265625 -1.5 C 3.265625 -1.300781 3.273438 -1.097656 3.296875 -0.890625 C 3.316406 -0.691406 3.390625 -0.523438 3.515625 -0.390625 C 3.609375 -0.453125 3.707031 -0.535156 3.8125 -0.640625 C 3.925781 -0.753906 4.007812 -0.867188 4.0625 -0.984375 Z M 1.40625 -0.484375 C 1.5625 -0.484375 1.75 -0.582031 1.96875 -0.78125 C 2.195312 -0.976562 2.398438 -1.25 2.578125 -1.59375 C 2.585938 -1.84375 2.617188 -2.09375 2.671875 -2.34375 C 2.722656 -2.601562 2.800781 -2.828125 2.90625 -3.015625 C 2.757812 -3.222656 2.613281 -3.363281 2.46875 -3.4375 C 2.332031 -3.507812 2.207031 -3.546875 2.09375 -3.546875 C 1.882812 -3.546875 1.707031 -3.484375 1.5625 -3.359375 C 1.425781 -3.234375 1.3125 -3.066406 1.21875 -2.859375 C 1.132812 -2.660156 1.070312 -2.4375 1.03125 -2.1875 C 1 -1.9375 0.984375 -1.691406 0.984375 -1.453125 C 0.984375 -1.117188 1.019531 -0.875 1.09375 -0.71875 C 1.164062 -0.5625 1.269531 -0.484375 1.40625 -0.484375 Z M 1.40625 -0.484375 "/></g></g></g><g fill="#232851" fill-opacity="1"><g transform="translate(13.64237, 9.240834)"><g><path d="M 4.09375 -0.984375 C 4.132812 -0.941406 4.15625 -0.882812 4.15625 -0.8125 C 4.15625 -0.6875 4.101562 -0.550781 4 -0.40625 C 3.894531 -0.257812 3.765625 -0.132812 3.609375 -0.03125 C 3.460938 0.0703125 3.320312 0.125 3.1875 0.125 C 3 0.125 2.847656 0.015625 2.734375 -0.203125 C 2.628906 -0.429688 2.578125 -0.738281 2.578125 -1.125 L 2.578125 -1.28125 C 2.453125 -1.03125 2.300781 -0.796875 2.125 -0.578125 C 1.957031 -0.367188 1.78125 -0.195312 1.59375 -0.0625 C 1.40625 0.0625 1.210938 0.125 1.015625 0.125 C 0.835938 0.125 0.695312 0.0664062 0.59375 -0.046875 C 0.5 -0.160156 0.429688 -0.304688 0.390625 -0.484375 C 0.347656 -0.671875 0.328125 -0.851562 0.328125 -1.03125 C 0.328125 -1.09375 0.328125 -1.148438 0.328125 -1.203125 C 0.328125 -1.253906 0.332031 -1.304688 0.34375 -1.359375 C 0.382812 -1.878906 0.503906 -2.332031 0.703125 -2.71875 C 0.898438 -3.113281 1.144531 -3.421875 1.4375 -3.640625 C 1.726562 -3.867188 2.03125 -3.984375 2.34375 -3.984375 C 2.53125 -3.984375 2.703125 -3.941406 2.859375 -3.859375 C 2.898438 -4.128906 2.925781 -4.40625 2.9375 -4.6875 C 2.957031 -4.96875 2.96875 -5.222656 2.96875 -5.453125 C 2.96875 -5.753906 2.953125 -5.984375 2.921875 -6.140625 C 3.035156 -6.171875 3.128906 -6.191406 3.203125 -6.203125 C 3.285156 -6.210938 3.351562 -6.21875 3.40625 -6.21875 C 3.5 -6.21875 3.566406 -6.179688 3.609375 -6.109375 C 3.660156 -6.035156 3.6875 -5.878906 3.6875 -5.640625 C 3.6875 -5.554688 3.679688 -5.460938 3.671875 -5.359375 C 3.671875 -5.265625 3.664062 -5.15625 3.65625 -5.03125 C 3.644531 -4.851562 3.617188 -4.609375 3.578125 -4.296875 C 3.546875 -3.984375 3.484375 -3.632812 3.390625 -3.25 C 3.378906 -3.101562 3.363281 -2.882812 3.34375 -2.59375 C 3.320312 -2.3125 3.3125 -1.992188 3.3125 -1.640625 C 3.3125 -1.398438 3.328125 -1.160156 3.359375 -0.921875 C 3.390625 -0.679688 3.457031 -0.5 3.5625 -0.375 C 3.664062 -0.4375 3.765625 -0.523438 3.859375 -0.640625 C 3.960938 -0.753906 4.039062 -0.867188 4.09375 -0.984375 Z M 1.390625 -0.484375 C 1.554688 -0.484375 1.753906 -0.585938 1.984375 -0.796875 C 2.222656 -1.015625 2.429688 -1.316406 2.609375 -1.703125 C 2.628906 -1.953125 2.65625 -2.210938 2.6875 -2.484375 C 2.71875 -2.765625 2.742188 -3 2.765625 -3.1875 C 2.660156 -3.320312 2.550781 -3.414062 2.4375 -3.46875 C 2.332031 -3.519531 2.222656 -3.546875 2.109375 -3.546875 C 1.785156 -3.546875 1.53125 -3.429688 1.34375 -3.203125 C 1.164062 -2.972656 1.054688 -2.617188 1.015625 -2.140625 C 1.003906 -2.003906 0.992188 -1.878906 0.984375 -1.765625 C 0.972656 -1.648438 0.96875 -1.539062 0.96875 -1.4375 C 0.96875 -1.101562 1.003906 -0.859375 1.078125 -0.703125 C 1.148438 -0.554688 1.253906 -0.484375 1.390625 -0.484375 Z M 1.390625 -0.484375 "/></g></g></g><g fill="#232851" fill-opacity="1"><g transform="translate(17.95147, 9.240834)"><g><path d="M 1.890625 -0.453125 C 2.054688 -0.453125 2.234375 -0.472656 2.421875 -0.515625 C 2.617188 -0.566406 2.789062 -0.664062 2.9375 -0.8125 C 2.945312 -0.769531 2.953125 -0.734375 2.953125 -0.703125 C 2.953125 -0.578125 2.90625 -0.460938 2.8125 -0.359375 C 2.726562 -0.265625 2.613281 -0.179688 2.46875 -0.109375 C 2.320312 -0.0351562 2.164062 0.0195312 2 0.0625 C 1.832031 0.101562 1.675781 0.125 1.53125 0.125 C 1.3125 0.125 1.109375 0.0703125 0.921875 -0.03125 C 0.742188 -0.132812 0.597656 -0.296875 0.484375 -0.515625 C 0.378906 -0.742188 0.328125 -1.046875 0.328125 -1.421875 C 0.328125 -1.765625 0.375 -2.085938 0.46875 -2.390625 C 0.570312 -2.703125 0.710938 -2.972656 0.890625 -3.203125 C 1.066406 -3.441406 1.273438 -3.628906 1.515625 -3.765625 C 1.753906 -3.910156 2.019531 -3.984375 2.3125 -3.984375 C 2.582031 -3.984375 2.796875 -3.914062 2.953125 -3.78125 C 3.117188 -3.644531 3.203125 -3.445312 3.203125 -3.1875 C 3.203125 -2.925781 3.125 -2.691406 2.96875 -2.484375 C 2.8125 -2.273438 2.597656 -2.109375 2.328125 -1.984375 C 2.054688 -1.867188 1.738281 -1.8125 1.375 -1.8125 C 1.226562 -1.8125 1.085938 -1.816406 0.953125 -1.828125 C 0.972656 -1.460938 1.019531 -1.175781 1.09375 -0.96875 C 1.164062 -0.769531 1.269531 -0.632812 1.40625 -0.5625 C 1.539062 -0.488281 1.703125 -0.453125 1.890625 -0.453125 Z M 2.0625 -3.5625 C 1.8125 -3.5625 1.578125 -3.453125 1.359375 -3.234375 C 1.140625 -3.023438 1.007812 -2.695312 0.96875 -2.25 C 1.195312 -2.175781 1.441406 -2.140625 1.703125 -2.140625 C 2.304688 -2.140625 2.609375 -2.410156 2.609375 -2.953125 C 2.609375 -3.023438 2.597656 -3.109375 2.578125 -3.203125 C 2.554688 -3.304688 2.503906 -3.390625 2.421875 -3.453125 C 2.347656 -3.523438 2.226562 -3.5625 2.0625 -3.5625 Z M 2.0625 -3.5625 "/></g></g></g><g fill="#232851" fill-opacity="1"><g transform="translate(21.427935, 9.240834)"><g><path d="M 6.671875 -0.984375 C 6.703125 -0.941406 6.71875 -0.882812 6.71875 -0.8125 C 6.71875 -0.6875 6.664062 -0.550781 6.5625 -0.40625 C 6.46875 -0.257812 6.34375 -0.132812 6.1875 -0.03125 C 6.039062 0.0703125 5.890625 0.125 5.734375 0.125 C 5.597656 0.125 5.5 0.078125 5.4375 -0.015625 C 5.382812 -0.109375 5.359375 -0.25 5.359375 -0.4375 C 5.359375 -0.5625 5.363281 -0.71875 5.375 -0.90625 C 5.394531 -1.09375 5.414062 -1.289062 5.4375 -1.5 C 5.46875 -1.707031 5.492188 -1.898438 5.515625 -2.078125 C 5.546875 -2.265625 5.570312 -2.410156 5.59375 -2.515625 C 5.613281 -2.628906 5.628906 -2.726562 5.640625 -2.8125 C 5.648438 -2.90625 5.65625 -2.988281 5.65625 -3.0625 C 5.65625 -3.195312 5.628906 -3.296875 5.578125 -3.359375 C 5.535156 -3.421875 5.457031 -3.453125 5.34375 -3.453125 C 5.175781 -3.453125 5.007812 -3.398438 4.84375 -3.296875 C 4.6875 -3.191406 4.539062 -3.054688 4.40625 -2.890625 C 4.269531 -2.722656 4.148438 -2.535156 4.046875 -2.328125 C 4.035156 -2.171875 4.019531 -2.003906 4 -1.828125 C 3.976562 -1.648438 3.957031 -1.46875 3.9375 -1.28125 C 3.894531 -0.882812 3.847656 -0.582031 3.796875 -0.375 C 3.753906 -0.175781 3.707031 -0.046875 3.65625 0.015625 C 3.601562 0.0859375 3.53125 0.125 3.4375 0.125 C 3.414062 0.125 3.367188 0.117188 3.296875 0.109375 C 3.234375 0.109375 3.1875 0.101562 3.15625 0.09375 C 3.144531 0.0078125 3.140625 -0.0625 3.140625 -0.125 C 3.140625 -0.195312 3.140625 -0.265625 3.140625 -0.328125 C 3.140625 -0.609375 3.160156 -0.847656 3.203125 -1.046875 C 3.253906 -1.253906 3.3125 -1.4375 3.375 -1.59375 C 3.40625 -1.832031 3.425781 -2.046875 3.4375 -2.234375 C 3.457031 -2.421875 3.46875 -2.59375 3.46875 -2.75 C 3.46875 -2.976562 3.441406 -3.148438 3.390625 -3.265625 C 3.335938 -3.390625 3.25 -3.453125 3.125 -3.453125 C 3.03125 -3.453125 2.898438 -3.410156 2.734375 -3.328125 C 2.566406 -3.242188 2.390625 -3.113281 2.203125 -2.9375 C 2.023438 -2.769531 1.863281 -2.539062 1.71875 -2.25 C 1.707031 -2.125 1.703125 -1.992188 1.703125 -1.859375 C 1.703125 -1.722656 1.695312 -1.585938 1.6875 -1.453125 C 1.664062 -1.054688 1.632812 -0.738281 1.59375 -0.5 C 1.5625 -0.269531 1.515625 -0.101562 1.453125 0 C 1.390625 0.09375 1.300781 0.140625 1.1875 0.140625 C 1.15625 0.140625 1.097656 0.132812 1.015625 0.125 C 0.941406 0.125 0.875 0.113281 0.8125 0.09375 C 0.8125 -0.164062 0.828125 -0.421875 0.859375 -0.671875 C 0.898438 -0.929688 0.960938 -1.164062 1.046875 -1.375 C 1.066406 -1.582031 1.078125 -1.765625 1.078125 -1.921875 C 1.085938 -2.085938 1.09375 -2.242188 1.09375 -2.390625 C 1.09375 -3.097656 1 -3.460938 0.8125 -3.484375 C 0.570312 -3.296875 0.375 -3.0625 0.21875 -2.78125 C 0.175781 -2.820312 0.15625 -2.875 0.15625 -2.9375 C 0.15625 -3.03125 0.1875 -3.132812 0.25 -3.25 C 0.320312 -3.363281 0.410156 -3.472656 0.515625 -3.578125 C 0.617188 -3.691406 0.734375 -3.785156 0.859375 -3.859375 C 0.984375 -3.929688 1.097656 -3.96875 1.203125 -3.96875 C 1.398438 -3.96875 1.53125 -3.851562 1.59375 -3.625 C 1.664062 -3.394531 1.707031 -3.109375 1.71875 -2.765625 C 1.875 -2.992188 2.050781 -3.195312 2.25 -3.375 C 2.457031 -3.5625 2.664062 -3.707031 2.875 -3.8125 C 3.082031 -3.925781 3.269531 -3.984375 3.4375 -3.984375 C 3.65625 -3.984375 3.8125 -3.882812 3.90625 -3.6875 C 4 -3.488281 4.050781 -3.21875 4.0625 -2.875 C 4.300781 -3.195312 4.578125 -3.460938 4.890625 -3.671875 C 5.203125 -3.878906 5.492188 -3.984375 5.765625 -3.984375 C 5.960938 -3.984375 6.109375 -3.925781 6.203125 -3.8125 C 6.296875 -3.695312 6.34375 -3.507812 6.34375 -3.25 C 6.34375 -3.132812 6.332031 -3.003906 6.3125 -2.859375 C 6.289062 -2.710938 6.265625 -2.546875 6.234375 -2.359375 C 6.210938 -2.285156 6.191406 -2.175781 6.171875 -2.03125 C 6.148438 -1.882812 6.125 -1.726562 6.09375 -1.5625 C 6.070312 -1.394531 6.050781 -1.234375 6.03125 -1.078125 C 6.007812 -0.921875 6 -0.785156 6 -0.671875 C 6 -0.597656 6.003906 -0.53125 6.015625 -0.46875 C 6.035156 -0.40625 6.0625 -0.367188 6.09375 -0.359375 C 6.195312 -0.421875 6.300781 -0.507812 6.40625 -0.625 C 6.519531 -0.75 6.609375 -0.867188 6.671875 -0.984375 Z M 6.671875 -0.984375 "/></g></g></g><g fill="#232851" fill-opacity="1"><g transform="translate(28.492455, 9.240834)"><g><path d="M 4.4375 -2.3125 C 4.332031 -2.257812 4.195312 -2.160156 4.03125 -2.015625 C 3.863281 -1.878906 3.695312 -1.738281 3.53125 -1.59375 C 3.519531 -1.082031 3.488281 -0.59375 3.4375 -0.125 C 3.394531 0.34375 3.3125 0.757812 3.1875 1.125 C 3.0625 1.5 2.878906 1.789062 2.640625 2 C 2.410156 2.21875 2.101562 2.328125 1.71875 2.328125 C 1.488281 2.328125 1.320312 2.289062 1.21875 2.21875 C 1.113281 2.144531 1.046875 2.0625 1.015625 1.96875 C 0.992188 1.875 0.984375 1.789062 0.984375 1.71875 C 0.984375 1.4375 1.0625 1.144531 1.21875 0.84375 C 1.375 0.539062 1.570312 0.234375 1.8125 -0.078125 C 1.71875 -0.015625 1.617188 0.03125 1.515625 0.0625 C 1.421875 0.101562 1.328125 0.125 1.234375 0.125 C 1.035156 0.125 0.894531 0.0390625 0.8125 -0.125 C 0.726562 -0.289062 0.6875 -0.503906 0.6875 -0.765625 C 0.6875 -0.921875 0.695312 -1.085938 0.71875 -1.265625 C 0.738281 -1.453125 0.765625 -1.640625 0.796875 -1.828125 C 0.835938 -2.097656 0.867188 -2.335938 0.890625 -2.546875 C 0.921875 -2.753906 0.9375 -2.9375 0.9375 -3.09375 C 0.9375 -3.1875 0.929688 -3.265625 0.921875 -3.328125 C 0.910156 -3.398438 0.890625 -3.445312 0.859375 -3.46875 C 0.640625 -3.34375 0.445312 -3.132812 0.28125 -2.84375 C 0.238281 -2.90625 0.21875 -2.972656 0.21875 -3.046875 C 0.21875 -3.179688 0.265625 -3.316406 0.359375 -3.453125 C 0.460938 -3.585938 0.585938 -3.703125 0.734375 -3.796875 C 0.878906 -3.890625 1.023438 -3.9375 1.171875 -3.9375 C 1.304688 -3.9375 1.398438 -3.878906 1.453125 -3.765625 C 1.515625 -3.660156 1.546875 -3.476562 1.546875 -3.21875 C 1.546875 -2.945312 1.515625 -2.585938 1.453125 -2.140625 C 1.421875 -1.929688 1.394531 -1.742188 1.375 -1.578125 C 1.363281 -1.421875 1.359375 -1.28125 1.359375 -1.15625 C 1.359375 -0.707031 1.460938 -0.484375 1.671875 -0.484375 C 1.703125 -0.484375 1.769531 -0.492188 1.875 -0.515625 C 1.976562 -0.546875 2.09375 -0.601562 2.21875 -0.6875 C 2.351562 -0.769531 2.484375 -0.898438 2.609375 -1.078125 C 2.742188 -1.253906 2.851562 -1.492188 2.9375 -1.796875 C 3.019531 -2.097656 3.0625 -2.472656 3.0625 -2.921875 C 3.0625 -3.046875 3.054688 -3.171875 3.046875 -3.296875 C 3.035156 -3.421875 3.023438 -3.554688 3.015625 -3.703125 C 3.066406 -3.796875 3.132812 -3.863281 3.21875 -3.90625 C 3.3125 -3.945312 3.382812 -3.96875 3.4375 -3.96875 C 3.550781 -3.96875 3.628906 -3.878906 3.671875 -3.703125 C 3.722656 -3.535156 3.75 -3.328125 3.75 -3.078125 C 3.75 -2.847656 3.734375 -2.644531 3.703125 -2.46875 C 3.671875 -2.289062 3.628906 -2.125 3.578125 -1.96875 C 3.722656 -2.101562 3.859375 -2.210938 3.984375 -2.296875 C 4.109375 -2.390625 4.210938 -2.4375 4.296875 -2.4375 C 4.367188 -2.4375 4.414062 -2.394531 4.4375 -2.3125 Z M 1.921875 2.0625 C 2.066406 2.0625 2.203125 1.960938 2.328125 1.765625 C 2.453125 1.578125 2.5625 1.328125 2.65625 1.015625 C 2.75 0.703125 2.828125 0.359375 2.890625 -0.015625 C 2.960938 -0.398438 3.015625 -0.785156 3.046875 -1.171875 L 2.78125 -0.890625 C 2.644531 -0.734375 2.503906 -0.546875 2.359375 -0.328125 C 2.222656 -0.117188 2.09375 0.0976562 1.96875 0.328125 C 1.851562 0.566406 1.757812 0.800781 1.6875 1.03125 C 1.625 1.257812 1.59375 1.472656 1.59375 1.671875 C 1.59375 1.742188 1.609375 1.828125 1.640625 1.921875 C 1.679688 2.015625 1.773438 2.0625 1.921875 2.0625 Z M 1.921875 2.0625 "/></g></g></g></g></g><g clip-path="url(#2973e2274c)"><path stroke-linecap="butt" transform="matrix(0.106181, 0, 0, 0.106181, 144.276834, 19.201712)" fill="none" stroke-linejoin="miter" d="M 28.000823 16.016292 C 28.000823 17.598196 27.706515 19.106523 27.081112 20.578062 C 26.492496 22.0496 25.609573 23.373985 24.46913 24.477639 C 23.365476 25.618082 22.07788 26.464216 20.606341 27.08962 C 19.134803 27.678236 17.589687 28.009332 16.007783 28.009332 C 14.425879 28.009332 12.880763 27.678236 11.409225 27.08962 C 9.937686 26.464216 8.650089 25.618082 7.509647 24.477639 C 6.405993 23.373985 5.52307 22.0496 4.897666 20.578062 C 4.30905 19.106523 4.014743 17.598196 4.014743 16.016292 C 4.014743 14.397599 4.30905 12.889272 4.897666 11.417733 C 5.52307 9.946195 6.405993 8.62181 7.509647 7.518156 C 8.650089 6.377713 9.937686 5.531579 11.409225 4.906175 C 12.880763 4.317559 14.425879 3.986463 16.007783 3.986463 C 17.589687 3.986463 19.134803 4.317559 20.606341 4.906175 C 22.07788 5.531579 23.365476 6.377713 24.46913 7.518156 C 25.609573 8.62181 26.492496 9.946195 27.081112 11.417733 C 27.706515 12.889272 28.000823 14.397599 28.000823 16.016292 Z M 28.000823 16.016292 " stroke="#000000" stroke-width="2" stroke-opacity="1" stroke-miterlimit="10"/><path stroke-linecap="butt" transform="matrix(0.106181, 0, 0, 0.106181, 144.276834, 19.201712)" fill="none" stroke-linejoin="miter" d="M 17.99436 17.00958 L 12.991129 17.00958 L 12.991129 11.01306 L 17.99436 11.01306 C 19.68663 11.01306 21.011014 12.300657 21.011014 13.992926 C 21.011014 15.685196 19.68663 17.00958 17.99436 17.00958 Z M 17.99436 17.00958 " stroke="#000000" stroke-width="2" stroke-opacity="1" stroke-miterlimit="10"/></g><path stroke-linecap="butt" transform="matrix(0.106181, 0, 0, 0.106181, 144.276834, 19.201712)" fill="none" stroke-linejoin="miter" d="M 12.991129 22.012812 L 12.991129 17.00958 " stroke="#000000" stroke-width="2" stroke-opacity="1" stroke-miterlimit="10"/><path fill="#232851" d="M 146.292969 21.007812 L 146.082031 21.007812 L 146.292969 21.539062 L 146.507812 21.539062 Z M 146.292969 21.007812 " fill-opacity="1" fill-rule="nonzero"/></svg>